<svg width="33" height="25" viewBox="0 0 33 25" fill="none" xmlns="http://www.w3.org/2000/svg">
<path d="M7.39917 10.259C7.04051 10.259 6.69633 10.3124 6.35375 10.3612C6.46473 9.99632 6.57892 9.62517 6.76227 9.29176C6.94562 8.80738 7.23191 8.38748 7.51658 7.96443C7.75461 7.50678 8.17439 7.19697 8.48319 6.80537C8.80647 6.42479 9.24715 6.17159 9.59616 5.85548C9.93873 5.52522 10.3875 5.36009 10.7445 5.12733C11.1176 4.91817 11.4425 4.68699 11.7899 4.5769L12.6568 4.22777L13.4192 3.91795L12.6391 0.870117L11.679 1.09658C11.3718 1.17207 10.997 1.26014 10.5708 1.36551C10.135 1.44414 9.67014 1.6596 9.15226 1.85618C8.64081 2.0795 8.04894 2.23048 7.49889 2.58905C6.94562 2.93189 6.30711 3.21811 5.7442 3.67733C5.19897 4.15071 4.54116 4.56117 4.05544 5.16351C3.52469 5.72652 3.00038 6.31784 2.59347 6.99095C2.12222 7.6326 1.80217 8.33715 1.46441 9.03384C1.15883 9.73054 0.912756 10.443 0.711714 11.1349C0.330539 12.522 0.160055 13.8399 0.0941135 14.9675C0.0394301 16.0967 0.0715968 17.0356 0.139147 17.715C0.163272 18.0358 0.208305 18.3472 0.240472 18.5627L0.28068 18.8269L0.322497 18.8174C0.608557 20.124 1.26708 21.3248 2.22188 22.2807C3.17669 23.2367 4.38876 23.9088 5.71788 24.2193C7.04701 24.5298 8.43887 24.466 9.73247 24.0353C11.0261 23.6046 12.1685 22.8246 13.0277 21.7855C13.8869 20.7464 14.4277 19.4907 14.5875 18.1637C14.7473 16.8366 14.5197 15.4924 13.9308 14.2866C13.342 13.0808 12.4161 12.0626 11.2602 11.3498C10.1043 10.6371 8.7657 10.2589 7.39917 10.259ZM25.0909 10.259C24.7322 10.259 24.388 10.3124 24.0454 10.3612C24.1564 9.99632 24.2706 9.62517 24.454 9.29176C24.6373 8.80738 24.9236 8.38748 25.2083 7.96443C25.4463 7.50678 25.8661 7.19697 26.1749 6.80537C26.4982 6.42479 26.9388 6.17159 27.2878 5.85548C27.6304 5.52522 28.0791 5.36009 28.4362 5.12733C28.8093 4.91817 29.1342 4.68699 29.4816 4.5769L30.3485 4.22777L31.1109 3.91795L30.3308 0.870117L29.3706 1.09658C29.0634 1.17207 28.6887 1.26014 28.2625 1.36551C27.8266 1.44414 27.3618 1.6596 26.8439 1.85618C26.3341 2.08107 25.7406 2.23048 25.1906 2.59062C24.6373 2.93346 23.9988 3.21969 23.4359 3.67891C22.8907 4.15228 22.2328 4.56275 21.7471 5.16351C21.2164 5.72652 20.6921 6.31784 20.2852 6.99095C19.8139 7.6326 19.4939 8.33715 19.1561 9.03384C18.8505 9.73054 18.6044 10.443 18.4034 11.1349C18.0222 12.522 17.8517 13.8399 17.7858 14.9675C17.7311 16.0967 17.7633 17.0356 17.8308 17.715C17.855 18.0358 17.9 18.3472 17.9322 18.5627L17.9724 18.8269L18.0142 18.8174C18.3002 20.124 18.9588 21.3248 19.9136 22.2807C20.8684 23.2367 22.0804 23.9088 23.4096 24.2193C24.7387 24.5298 26.1306 24.466 27.4242 24.0353C28.7178 23.6046 29.8602 22.8246 30.7194 21.7855C31.5786 20.7464 32.1194 19.4907 32.2792 18.1637C32.439 16.8366 32.2113 15.4924 31.6225 14.2866C31.0337 13.0808 30.1078 12.0626 28.9519 11.3498C27.796 10.6371 26.4574 10.2589 25.0909 10.259Z" fill="#113EC3"/>
</svg>
