<svg width="120" height="23" viewBox="0 0 120 23" fill="none" xmlns="http://www.w3.org/2000/svg">
<path d="M11.5359 16.3856L15.2722 18.6454C15.9564 19.0595 16.7937 18.4473 16.6136 17.6731L15.6233 13.4236L18.9274 10.5607C19.5306 10.0385 19.2065 9.04815 18.4142 8.98513L14.0657 8.616L12.3642 4.60065C12.0581 3.8714 11.0137 3.8714 10.7076 4.60065L9.00604 8.607L4.65757 8.97612C3.8653 9.03914 3.54119 10.0295 4.1444 10.5517L7.44851 13.4146L6.45818 17.6641C6.27812 18.4383 7.1154 19.0505 7.79963 18.6364L11.5359 16.3856Z" fill="#FFB100"/>
<path d="M35.8445 16.3856L39.5807 18.6454C40.265 19.0595 41.1023 18.4473 40.9222 17.6731L39.9319 13.4236L43.236 10.5607C43.8392 10.0385 43.5151 9.04815 42.7228 8.98513L38.3743 8.616L36.6728 4.60065C36.3667 3.8714 35.3223 3.8714 35.0162 4.60065L33.3146 8.607L28.9662 8.97612C28.1739 9.03914 27.8498 10.0295 28.453 10.5517L31.7571 13.4146L30.7668 17.6641C30.5867 18.4383 31.424 19.0505 32.1082 18.6364L35.8445 16.3856Z" fill="#FFB100"/>
<path d="M60.1531 16.3856L63.8893 18.6454C64.5736 19.0595 65.4109 18.4473 65.2308 17.6731L64.2405 13.4236L67.5446 10.5607C68.1478 10.0385 67.8237 9.04815 67.0314 8.98513L62.6829 8.616L60.9814 4.60065C60.6753 3.8714 59.6309 3.8714 59.3248 4.60065L57.6232 8.607L53.2748 8.97612C52.4825 9.03914 52.1584 10.0295 52.7616 10.5517L56.0657 13.4146L55.0754 17.6641C54.8953 18.4383 55.7326 19.0505 56.4168 18.6364L60.1531 16.3856Z" fill="#FFB100"/>
<path d="M84.4617 16.3856L88.1979 18.6454C88.8822 19.0595 89.7194 18.4473 89.5394 17.6731L88.5491 13.4236L91.8532 10.5607C92.4564 10.0385 92.1323 9.04815 91.34 8.98513L86.9915 8.616L85.29 4.60065C84.9839 3.8714 83.9395 3.8714 83.6334 4.60065L81.9318 8.607L77.5834 8.97612C76.7911 9.03914 76.467 10.0295 77.0702 10.5517L80.3743 13.4146L79.384 17.6641C79.2039 18.4383 80.0412 19.0505 80.7254 18.6364L84.4617 16.3856Z" fill="#FFB100"/>
<path d="M108.774 16.3856L112.51 18.6454C113.195 19.0595 114.032 18.4473 113.852 17.6731L112.862 13.4236L116.166 10.5607C116.769 10.0385 116.445 9.04815 115.652 8.98513L111.304 8.616L109.602 4.60065C109.296 3.8714 108.252 3.8714 107.946 4.60065L106.244 8.607L101.896 8.97612C101.104 9.03914 100.779 10.0295 101.383 10.5517L104.687 13.4146L103.696 17.6641C103.516 18.4383 104.354 19.0505 105.038 18.6364L108.774 16.3856Z" fill="#FFB100"/>
</svg>
