<svg width="174" height="175" viewBox="0 0 174 175" fill="none" xmlns="http://www.w3.org/2000/svg">
<circle cx="87.001" cy="87.6973" r="86.7627" fill="#23A26D" fill-opacity="0.12"/>
<path d="M85.4601 46.3838C62.6952 46.3838 44.1445 64.9345 44.1445 87.6994C44.1445 110.464 62.6952 129.015 85.4601 129.015C108.225 129.015 126.776 110.464 126.776 87.6994C126.776 64.9345 108.225 46.3838 85.4601 46.3838ZM105.209 78.1968L81.783 101.623C81.2046 102.201 80.4196 102.532 79.5933 102.532C78.767 102.532 77.982 102.201 77.4036 101.623L65.7113 89.9304C64.5131 88.7322 64.5131 86.7491 65.7113 85.5509C66.9094 84.3528 68.8926 84.3528 70.0907 85.5509L79.5933 95.0535L100.829 73.8173C102.028 72.6192 104.011 72.6192 105.209 73.8173C106.407 75.0155 106.407 76.9573 105.209 78.1968Z" fill="#23A26D"/>
</svg>
